<svg width="233" height="47" viewBox="0 0 233 47" fill="none" xmlns="http://www.w3.org/2000/svg">
<path d="M11.696 13.808V40.688L15.344 40.88V46H0.112V41.136L2.224 40.944C3.46133 40.816 4.08 40.1333 4.08 38.896V21.104C4.08 20.3787 3.952 19.888 3.696 19.632C3.48267 19.376 3.07733 19.248 2.48 19.248L0.24 19.12V13.808H11.696ZM3.632 8.304C2.736 7.408 2.288 6.27733 2.288 4.912C2.288 3.54667 2.736 2.416 3.632 1.52C4.528 0.581332 5.70133 0.112 7.152 0.112C8.60267 0.112 9.776 0.581332 10.672 1.52C11.6107 2.416 12.08 3.54667 12.08 4.912C12.08 6.27733 11.6107 7.408 10.672 8.304C9.776 9.15733 8.60267 9.584 7.152 9.584C5.70133 9.584 4.528 9.15733 3.632 8.304ZM19.9455 18.928V13.808H30.7615V17.968C31.8708 16.3893 33.3428 15.152 35.1775 14.256C37.0122 13.3173 38.9962 12.848 41.1295 12.848C44.3722 12.848 46.8682 13.7867 48.6175 15.664C50.4095 17.4987 51.3055 20.272 51.3055 23.984V40.688L54.9535 40.88V46H39.7215V41.136L41.8335 40.944C42.4735 40.8587 42.9428 40.688 43.2415 40.432C43.5402 40.1333 43.6895 39.6 43.6895 38.832V25.648C43.6895 23.3013 43.3268 21.5733 42.6015 20.464C41.8762 19.312 40.4895 18.736 38.4415 18.736C36.4362 18.736 34.8362 19.376 33.6415 20.656C32.4468 21.936 31.8495 23.4507 31.8495 25.2V40.688L35.4975 40.88V46H20.2655V41.136L22.3775 40.944C23.0175 40.8587 23.4868 40.688 23.7855 40.432C24.0842 40.1333 24.2335 39.6 24.2335 38.832V21.104C24.2335 19.824 23.7002 19.1627 22.6335 19.12L19.9455 18.928ZM76.253 13.808H89.757V18.8L87.773 18.928C86.9197 19.0133 86.3437 19.5253 86.045 20.464L77.789 46H67.997L59.037 20.528C58.8237 19.9307 58.589 19.5253 58.333 19.312C58.1197 19.0987 57.7357 18.9707 57.181 18.928L55.325 18.8V13.808H70.365V18.928L66.461 19.12L73.053 40.176H73.181L79.581 19.12L76.253 18.928V13.808ZM107.547 41.328C112.198 41.328 114.523 37.5733 114.523 30.064C114.523 26.2667 113.99 23.3867 112.923 21.424C111.899 19.4613 110.15 18.48 107.675 18.48C105.243 18.48 103.451 19.4187 102.299 21.296C101.147 23.1733 100.571 25.7333 100.571 28.976C100.571 34.992 101.68 38.768 103.899 40.304C104.88 40.9867 106.096 41.328 107.547 41.328ZM92.827 29.872C92.827 26.7147 93.2963 23.984 94.235 21.68C95.1737 19.3333 96.4323 17.5413 98.011 16.304C101.04 14 104.39 12.848 108.059 12.848C110.619 12.848 112.774 13.2747 114.523 14.128C116.315 14.9387 117.702 15.8987 118.683 17.008C119.707 18.0747 120.56 19.6533 121.243 21.744C121.968 23.792 122.331 26.224 122.331 29.04C122.331 34.928 120.902 39.3867 118.043 42.416C115.184 45.4453 111.515 46.96 107.035 46.96C102.598 46.96 99.1203 45.5307 96.603 42.672C94.0857 39.7707 92.827 35.504 92.827 29.872ZM139.504 13.808V40.688L143.152 40.88V46H127.92V41.136L130.032 40.944C131.269 40.816 131.888 40.1333 131.888 38.896V21.104C131.888 20.3787 131.76 19.888 131.504 19.632C131.29 19.376 130.885 19.248 130.288 19.248L128.048 19.12V13.808H139.504ZM131.44 8.304C130.544 7.408 130.096 6.27733 130.096 4.912C130.096 3.54667 130.544 2.416 131.44 1.52C132.336 0.581332 133.509 0.112 134.96 0.112C136.41 0.112 137.584 0.581332 138.48 1.52C139.418 2.416 139.888 3.54667 139.888 4.912C139.888 6.27733 139.418 7.408 138.48 8.304C137.584 9.15733 136.41 9.584 134.96 9.584C133.509 9.584 132.336 9.15733 131.44 8.304ZM155.881 29.552C155.881 33.1787 156.564 35.9947 157.929 38C159.294 40.0053 161.257 41.008 163.817 41.008C166.42 41.008 168.98 40.0907 171.497 38.256L174.249 43.184C171.22 45.6587 167.422 46.896 162.857 46.896C158.292 46.896 154.686 45.4667 152.041 42.608C149.438 39.7067 148.137 35.44 148.137 29.808C148.137 24.176 149.63 19.952 152.617 17.136C155.646 14.2773 159.038 12.848 162.793 12.848C166.59 12.848 170.11 13.7227 173.353 15.472V23.792L167.465 24.24V21.168C167.465 20.016 167.038 19.312 166.185 19.056C165.374 18.7573 164.521 18.608 163.625 18.608C158.462 18.608 155.881 22.256 155.881 29.552ZM191.126 13.808V40.688L194.774 40.88V46H179.542V41.136L181.654 40.944C182.891 40.816 183.51 40.1333 183.51 38.896V21.104C183.51 20.3787 183.382 19.888 183.126 19.632C182.913 19.376 182.507 19.248 181.91 19.248L179.67 19.12V13.808H191.126ZM183.062 8.304C182.166 7.408 181.718 6.27733 181.718 4.912C181.718 3.54667 182.166 2.416 183.062 1.52C183.958 0.581332 185.131 0.112 186.582 0.112C188.033 0.112 189.206 0.581332 190.102 1.52C191.041 2.416 191.51 3.54667 191.51 4.912C191.51 6.27733 191.041 7.408 190.102 8.304C189.206 9.15733 188.033 9.584 186.582 9.584C185.131 9.584 183.958 9.15733 183.062 8.304ZM228.496 15.088V38.896C228.496 39.5787 228.602 40.048 228.816 40.304C229.072 40.56 229.498 40.7093 230.096 40.752L232.144 40.88V46H221.968V42.288L221.776 42.224C219.642 45.296 216.72 46.832 213.008 46.832C208.656 46.832 205.434 45.4453 203.344 42.672C201.253 39.8987 200.208 36.1013 200.208 31.28C200.208 25.4773 201.616 20.9547 204.432 17.712C207.248 14.4693 211.472 12.848 217.104 12.848C220.73 12.848 224.528 13.5947 228.496 15.088ZM221.072 35.824V19.248C219.877 18.6933 218.234 18.416 216.144 18.416C213.285 18.416 211.216 19.568 209.936 21.872C208.656 24.176 208.016 27.2267 208.016 31.024C208.016 37.936 210.234 41.392 214.672 41.392C216.549 41.392 218.085 40.8373 219.28 39.728C220.474 38.576 221.072 37.2747 221.072 35.824Z" fill="#1155CC"/>
</svg>
