<svg width="90" height="90" viewBox="0 0 90 90" fill="none" xmlns="http://www.w3.org/2000/svg">
<path d="M49.2273 37.808V64.688L52.8753 64.88V70H37.6432V65.136L39.7552 64.944C40.9926 64.816 41.6113 64.1333 41.6113 62.896V45.104C41.6113 44.3787 41.4833 43.888 41.2273 43.632C41.0139 43.376 40.6086 43.248 40.0113 43.248L37.7713 43.12V37.808H49.2273ZM41.1633 32.304C40.2673 31.408 39.8193 30.2773 39.8193 28.912C39.8193 27.5467 40.2673 26.416 41.1633 25.52C42.0593 24.5813 43.2326 24.112 44.6833 24.112C46.1339 24.112 47.3073 24.5813 48.2033 25.52C49.1419 26.416 49.6113 27.5467 49.6113 28.912C49.6113 30.2773 49.1419 31.408 48.2033 32.304C47.3073 33.1573 46.1339 33.584 44.6833 33.584C43.2326 33.584 42.0593 33.1573 41.1633 32.304Z" fill="#1A1B1E"/>
<rect x="2" y="2" width="86" height="86" stroke="#1A1B1E" stroke-width="4"/>
</svg>
